<svg fill="currentColor" viewBox="145.6 231.6 752 566" version="1.1" xmlns="http://www.w3.org/2000/svg" style="max-height: 500px" width="752" height="566">
  <defs>
    <style>
      .st0 {
        fill: var(--md-footer-bg-color, #000);
        stroke: var(--md-footer-bg-color, #000);
        stroke-width: 4px;
        stroke-linecap: round;
        stroke-linejoin: round;
      }

      .st1 {
        fill: var(--md-footer-bg-color, #000);
        stroke: currentColor;
        stroke-width: 6px;
        stroke-miterlimit: 10;
      }

      .st2 {
        fill: var(--md-footer-bg-color, #000);
        stroke: currentColor;
        stroke-width: 3px;
        stroke-miterlimit: 10;
      }

      .st3 {
        fill: var(--md-footer-bg-color, #000);
      }

      .st4 {
        fill: none;
        stroke: var(--md-footer-bg-color, #000);
        stroke-width: 9px;
        stroke-linecap: round;
        stroke-linejoin: round;
      }

      .st5 {
        fill: none;
        stroke: var(--md-footer-bg-color, #000);
        stroke-miterlimit: 10;
      }
    </style>
  </defs>
  <path d="M888.15,730.37v56.31l-735.42-170.86,89.25-32.32-91.91-1.16,91.44-42.78-89.87,9.84,159.13-111.35,60.95,9.61,27.25-14.18v-41.29c0-11.86,16.15-21.48,36.08-21.48s36.07,9.62,36.07,21.48v3.73l26.14-13.61-3.6-28.32c0-1.7,4.66-4.81,6.34-5.84v-20.96s-.02-11.28-.03-11.25c-5.24,6.06-11.77,10.95-19.16,14.26-7.2,3.24-15.22,4.97-23.63,4.81-5.26-.1-10.33-.94-15.12-2.41-.8,3.88-2.67,7.39-5.28,10.2-3.92,4.22-9.52,6.87-15.74,6.87-4.71,0-9.07-1.52-12.61-4.1-5.15,9-14.84,15.06-25.95,15.06-2.82,0-5.55-.39-8.14-1.13-4.93,9.69-15.01,16.33-26.64,16.33-1.51,0-3-.11-4.45-.33-1.92-.28-3.77-.75-5.54-1.38l-3.87,2.9-183.77,149.29,154.56-172.79c-.45-2.06-.69-4.2-.69-6.39,0-16.51,13.39-29.9,29.9-29.9,0-16.51,13.38-29.9,29.89-29.9,4.3,0,8.38.91,12.08,2.55-.28-1.38-.43-2.81-.43-4.28,0-11.86,9.61-21.47,21.47-21.47,5.64,0,10.77,2.17,14.61,5.74,8.83-18.66,27.84-31.57,49.86-31.57,12.26,0,23.59,4.01,32.75,10.78.57-.06,1.14-.09,1.71-.09,13.62,0,24.66,7.13,24.66,27.9v70.66s7.01,1.65,7.01,3.7l-3.15,16.99,42.32-22.03c12.99-7.47,27.49-11.65,42.79-11.65,55.69,0,100.84,55.3,100.84,123.52,0,25.75-6.44,49.65-17.44,69.44l195.34,202.85Z"/>
  <ellipse ry="61.28" rx="35.35" cy="607.17" cx="480.82" class="st1"/>
  <ellipse ry="24.17" rx="19.73" cy="446.34" cx="624.76" class="st0"/>
  <ellipse ry="32.26" rx="11.21" cy="603.53" cx="291.69" class="st2"/>
  <ellipse ry="39.46" rx="17.85" cy="604.48" cx="338.64" class="st2"/>
  <ellipse ry="48.91" rx="26.6" cy="605.47" cx="400.97" class="st1"/>
  <path d="M341.07,603.76c0,7.14-1.32,12.18-2.43,14.47-1.11-2.29-2.43-7.33-2.43-14.47s1.32-12.18,2.43-14.47c1.11,2.29,2.43,7.33,2.43,14.47Z"/>
  <path d="M293.46,603.76c0,5.86-.96,10-1.77,11.88-.81-1.88-1.77-6.02-1.77-11.88s.96-10,1.77-11.88c.81,1.88,1.77,6.02,1.77,11.88Z"/>
  <path d="M406.48,604.76c0,5.64-.81,10.98-2.27,15.03-1.41,3.91-2.87,5.05-3.24,5.17-.37-.13-1.83-1.26-3.24-5.17-1.47-4.05-2.27-9.39-2.27-15.03s.81-10.98,2.27-15.03c1.41-3.91,2.87-5.05,3.24-5.17.37.13,1.83,1.26,3.24,5.17,1.47,4.05,2.27,9.39,2.27,15.03Z"/>
  <path d="M491.01,605.95c0,16.07-6.03,26.32-10.19,26.32s-10.19-10.25-10.19-26.32,6.03-26.32,10.19-26.32,10.19,10.25,10.19,26.32Z"/>
  <path d="M294.26,511.54c0,.87-.52,1.65-1.33,1.98l-21.12,8.53c-.26.11-.54.16-.8.16-1.13,0-2.13-.91-2.13-2.14v-31.87c0-.75.39-1.45,1.04-1.83l21.1-12.58c.35-.21.73-.3,1.09-.3h-.01c1.12-.01,2.14.88,2.14,2.13l.02,35.92Z" class="st3"/>
  <line y2="578.88" x2="688.04" y1="688.8" x1="793.99" class="st4"/>
  <line y2="593.37" x2="647.45" y1="675.33" x1="726.48" class="st4"/>
  <line y2="604.71" x2="605.15" y1="662.25" x1="660.55" class="st4"/>
  <line y2="726.11" x2="832.6" y1="685.91" x1="631.04" class="st4"/>
  <line y2="674.68" x2="567.77" y1="596.91" x1="567.77" class="st4"/>
  <line y2="364.86" x2="304.63" y1="364.2" x1="305.27" class="st5"/>
  <path d="M500,327.19v.06l-.03.03s.02-.06.03-.09Z"/>
  <line y2="503.19" x2="492.95" y1="555.54" x1="268.64" class="st4"/>
  <line y2="492.46" x2="345.07" y1="434.97" x1="487.35" class="st4"/>
</svg>
