<?xml version="1.0" encoding="UTF-8" standalone="no"?>
<!-- Created with Inkscape (http://www.inkscape.org/) -->

<svg
   width="1000"
   height="1000"
   viewBox="0 0 264.58333 264.58333"
   version="1.1"
   id="svg1"
   inkscape:version="1.3 (0e150ed6c4, 2023-07-21)"
   sodipodi:docname="ciuf_exporting.svg"
   xml:space="preserve"
   inkscape:export-filename="ciuf_exporting.png"
   inkscape:export-xdpi="104.55"
   inkscape:export-ydpi="104.55"
   xmlns:inkscape="http://www.inkscape.org/namespaces/inkscape"
   xmlns:sodipodi="http://sodipodi.sourceforge.net/DTD/sodipodi-0.dtd"
   xmlns="http://www.w3.org/2000/svg"
   xmlns:svg="http://www.w3.org/2000/svg"
   xmlns:rdf="http://www.w3.org/1999/02/22-rdf-syntax-ns#"
   xmlns:cc="http://creativecommons.org/ns#"
   xmlns:dc="http://purl.org/dc/elements/1.1/"><title
     id="title14">CIUF Logo</title><sodipodi:namedview
     id="namedview1"
     pagecolor="#ffffff"
     bordercolor="#666666"
     borderopacity="1.0"
     inkscape:showpageshadow="false"
     inkscape:pageopacity="0.0"
     inkscape:pagecheckerboard="false"
     inkscape:deskcolor="#d1d1d1"
     inkscape:document-units="mm"
     inkscape:zoom="1"
     inkscape:cx="285.5"
     inkscape:cy="538"
     inkscape:window-width="1920"
     inkscape:window-height="992"
     inkscape:window-x="-8"
     inkscape:window-y="-8"
     inkscape:window-maximized="1"
     inkscape:current-layer="layer2"
     shape-rendering="auto"
     showborder="false"
     showguides="true"
     inkscape:export-bgcolor="#ffffffff" /><defs
     id="defs1" /><g
     inkscape:groupmode="layer"
     id="layer2"
     inkscape:label="ciuf"
     style="display:inline"><path
       id="path1-0"
       style="display:inline;opacity:1;fill:#ffffffff;stroke-width:0.0783428;stroke-linejoin:round"
       inkscape:label="light_left"
       d="m 147.03082,136.73946 a 4.7102636,5.9414425 0 0 0 -2.8112,1.19269 l -4.8612,-0.0661 c 0,0 -5.36334,5.27047 0.11679,9.70122 l 5.01364,0.14004 c 0,0 -0.0435,-0.0598 -0.0579,-0.0785 a 4.7102636,5.9414425 0 0 0 2.59984,0.99373 4.7102636,5.9414425 0 0 0 4.71031,-5.94175 4.7102636,5.9414425 0 0 0 -4.71031,-5.94124 z m 0.37517,0.78393 a 3.8247157,4.9657228 0 0 1 3.82457,4.96559 3.8247157,4.9657228 0 0 1 -3.82457,4.9661 3.8247157,4.9657228 0 0 1 -3.82457,-4.9661 3.8247157,4.9657228 0 0 1 3.82457,-4.96559 z" /><path
       id="path10"
       style="display:inline;opacity:1;fill:#ffffffff;stroke-width:0.0686058;stroke-linejoin:round"
       inkscape:label="light_right"
       d="m 190.82389,137.30665 a 4.1197837,5.2093767 0 0 0 -2.45879,1.04573 l -4.25181,-0.058 c 0,0 -4.69098,4.62108 0.10216,8.50589 l 4.38513,0.12279 c 0,0 -0.0381,-0.0525 -0.0506,-0.0687 a 4.1197837,5.2093767 0 0 0 2.27392,0.87128 4.1197837,5.2093767 0 0 0 4.11983,-5.20964 4.1197837,5.2093767 0 0 0 -4.11983,-5.2092 z m 0.32813,0.68733 a 3.3452483,4.3538787 0 0 1 3.34512,4.35376 3.3452483,4.3538787 0 0 1 -3.34512,4.35421 3.3452483,4.3538787 0 0 1 -3.34511,-4.35421 3.3452483,4.3538787 0 0 1 3.34511,-4.35376 z" /><g
       id="g12"
       inkscape:label="lamp"
       style="display:inline;opacity:1"><path
         id="path11"
         style="display:inline;opacity:1;fill:#ffffffff;stroke:#ffffffff;stroke-width:0.264583px;stroke-linecap:butt;stroke-linejoin:miter;stroke-opacity:1"
         inkscape:label="lamp_house"
         d="M 163.74091 69.849483 L 154.80399 76.445463 L 152.03361 81.853918 L 152.36331 92.044511 L 168.19335 93.62736 L 173.40389 90.461662 L 172.94242 77.435067 L 163.74091 69.849483 z M 164.2029 72.883923 L 170.89758 78.226233 L 171.16113 88.779594 L 159.32206 87.724361 L 158.76137 78.160604 L 164.2029 72.883923 z M 159.65175 89.571277 L 169.97412 90.725212 L 167.17067 92.572127 L 157.01316 91.121053 L 159.65175 89.571277 z " /><path
         id="path1-2"
         style="display:inline;opacity:1;fill:#ffffffff;stroke-width:0.0724654;stroke-linejoin:round"
         d="m 165.14113,77.155641 a 4.6840519,5.1118954 0 0 0 -4.684,5.11188 4.6840519,5.1118954 0 0 0 4.684,5.111997 4.6840519,5.1118954 0 0 0 4.68415,-5.111997 4.6840519,5.1118954 0 0 0 -4.68415,-5.11188 z m 0.37312,0.67463 a 3.803432,4.2724062 0 0 1 3.8034,4.27235 3.803432,4.2724062 0 0 1 -3.8034,4.272466 3.803432,4.2724062 0 0 1 -3.80338,-4.272466 3.803432,4.2724062 0 0 1 3.80338,-4.27235 z"
         inkscape:label="inner_lamp" /><path
         id="path2-7"
         style="display:inline;opacity:1;fill:#ffffffff;stroke-width:0.0384752;stroke-linejoin:round"
         d="m 165.55877,79.213106 c 1.25418,-3.4e-5 2.30388,1.378272 2.30386,3.037814 -2e-5,1.659507 -0.78588,2.955309 -2.04003,2.955275 -0.11051,-8.57e-4 -0.48465,0.0041 -0.59389,-0.01801 0.9717,-0.630807 1.53472,-1.383984 1.53724,-2.977568 -5.3e-4,-1.498595 -0.90143,-2.536731 -1.67683,-3.007574 0.0466,-0.004 0.42299,0.01032 0.46965,0.01009 z"
         inkscape:label="lamp_shadow"
         sodipodi:nodetypes="ssccccss" /><ellipse
         style="opacity:1;fill:#ffffffff;stroke:#ffffffff;stroke-width:0.254;stroke-linejoin:round"
         id="path12"
         cx="164.88211"
         cy="82.458542"
         rx="0.54801351"
         ry="0.79287058"
         inkscape:label="lamp_shadow" /></g><path
       id="rect13-9"
       style="display:inline;opacity:1;fill:#ffffffff;stroke:#ffffffff;stroke-width:0;stroke-linejoin:round;stroke-dasharray:none"
       inkscape:label="base_luci"
       d="m 133.15282,135.22411 c -0.83247,0 -1.50275,0.67029 -1.50275,1.50276 v 11.44219 c 0,0.18489 0.0376,0.35964 0.0982,0.52297 l 0.0393,0.98237 3.07836,1.86551 1.25884,6.24975 1.81901,-0.047 0.37311,-6.15622 16.37057,-0.3731 0.0377,-1.54151 h 37.3295 c 1.7536,0 1.50275,0.23919 1.50275,-1.50275 v -2.49752 c -0.25852,0.34684 -0.55474,0.62089 -0.8723,0.82372 v 1.59525 c 0,0.54335 -0.60356,0.98082 -1.35289,0.98082 h -55.85343 c -0.74933,0 -1.35238,-0.43747 -1.35238,-0.98082 v -10.57351 c 0,-0.54335 0.60305,-0.98082 1.35238,-0.98082 h 55.85343 c 0.74933,0 1.35289,0.43747 1.35289,0.98082 v 0.69091 c 0.31743,0.2013 0.61343,0.47399 0.8723,0.81907 v -2.30011 c 0,-0.83247 -0.67028,-1.50276 -1.50275,-1.50276 z" /><g
       id="g3"
       inkscape:label="front_group"
       style="display:inline"><path
         id="path2"
         style="opacity:1;fill:#ffffffff;stroke-width:0.218191;stroke-linejoin:round"
         d="m 159.61868,94.715666 a 12.795879,17.149118 0 0 0 -12.79612,17.149344 12.795879,17.149118 0 0 0 12.79612,17.14882 12.795879,17.149118 0 0 0 1.85984,-0.19689 12.795879,17.149118 0 0 1 -12.10004,-17.08784 12.795879,17.149118 0 0 1 11.02827,-16.976744 12.795879,17.149118 0 0 0 -0.78807,-0.03669 z"
         inkscape:label="front_shadow" /><path
         id="path2-0"
         style="opacity:1;fill:#ffffffff;stroke-width:0.0644997;stroke-linejoin:round"
         d="m 162.63193,104.89231 a 4.9904208,6.3429646 0 0 0 -4.99039,6.34276 4.9904208,6.3429646 0 0 0 4.99039,6.34277 4.9904208,6.3429646 0 0 0 4.9904,-6.34277 4.9904208,6.3429646 0 0 0 -4.9904,-6.34276 z m 0.003,1.1932 a 3.7826069,5.0694737 0 0 1 3.78271,5.06946 3.7826069,5.0694737 0 0 1 -3.78271,5.06946 3.7826069,5.0694737 0 0 1 -0.54984,-0.0579 3.7826069,5.0694737 0 0 0 3.57704,-5.05137 3.7826069,5.0694737 0 0 0 -3.25975,-5.01881 3.7826069,5.0694737 0 0 1 0.23255,-0.0109 z"
         inkscape:label="front" /><path
         id="path16"
         style="opacity:1;fill:#ffffffff;stroke-width:0.295836;stroke-linejoin:round"
         inkscape:label="front_main"
         d="M 157.57384 89.834827 A 17.742735 22.491722 0 0 0 139.83126 112.32648 A 17.742735 22.491722 0 0 0 157.57384 134.81864 A 17.742735 22.491722 0 0 0 175.31695 112.32648 A 17.742735 22.491722 0 0 0 165.65811 92.35612 L 157.01316 91.121053 L 159.00115 89.953166 A 17.742735 22.491722 0 0 0 157.57384 89.834827 z M 158.98719 92.803121 A 14.407032 18.798071 0 0 1 173.39407 111.60094 A 14.407032 18.798071 0 0 1 158.98719 130.39928 A 14.407032 18.798071 0 0 1 144.58032 111.60094 A 14.407032 18.798071 0 0 1 158.98719 92.803121 z " /></g><path
       id="path13"
       style="fill:#ffffff;stroke:#ffffff;stroke-width:0.264583px;stroke-linecap:butt;stroke-linejoin:miter;stroke-opacity:1"
       d="m 141.97066,123.12788 -1.30586,2.98535 -9.18807,10.54044 3.31143,-0.18655 0.3731,-1.11931 9.39374,-7.80056 a 17.742735,22.491722 0 0 1 -2.47995,-4.31756 z"
       inkscape:label="supporto_sx" /><path
       style="fill:#ffffffff;stroke:#ffffffff;stroke-width:0.264583;stroke-linecap:butt;stroke-linejoin:miter;stroke-dasharray:none;stroke-opacity:1"
       d="m 170.27093,127.53006 7.78307,8.87137 4.78196,-0.23085 -3.36387,-0.92342 -8.14583,-9.30009 z"
       id="path18"
       inkscape:label="supporto_dx" /><g
       id="g19"
       inkscape:label="sotto_luci"><path
         id="rect18"
         style="opacity:1;fill:#ffffffff;stroke:#ffffffff;stroke-width:0;stroke-linejoin:round;stroke-dasharray:none;stroke-opacity:1"
         inkscape:label="sottoluci_supporto"
         d="m 155.31207,148.29385 c -0.74932,0 -1.3524,0.45408 -1.3524,1.01771 v 5.60534 l -0.047,2.8e-4 0.0703,8.34791 1.8423,0.0124 v -8.37158 l -0.0207,1.2e-4 0.0439,-4.54779 44.07508,-0.49232 0.26355,7.14892 c 0.74587,-0.003 1.34568,-0.45488 1.34568,-1.01664 v -6.68693 c 0,-0.56362 -0.6036,-1.0173 -1.35291,-1.0173 z"
         transform="matrix(0.9999827,0.00588225,0,1,0,0)" /><ellipse
         style="opacity:1;fill:#ffffffff;stroke:#ffffffff;stroke-width:0;stroke-linejoin:round;stroke-dasharray:none;stroke-opacity:1"
         id="path19"
         cx="159.32034"
         cy="154.24832"
         rx="0.83951002"
         ry="1.0144079"
         inkscape:label="sottoluce_sx" /><ellipse
         style="opacity:1;fill:#ffffffff;stroke:#ffffffff;stroke-width:0;stroke-linejoin:round;stroke-dasharray:none;stroke-opacity:1"
         id="ellipse19"
         cx="197.51805"
         cy="154.24832"
         rx="0.83951002"
         ry="1.0144079"
         inkscape:label="sottoluce_dx" /></g><path
       id="path20"
       style="display:inline;opacity:1;fill:#ffffffff;stroke:#ffffffff;stroke-width:0.264583px;stroke-linecap:butt;stroke-linejoin:miter;stroke-opacity:1"
       inkscape:label="frontale_esterno_sx"
       d="m 179.3043,157.6002 -5.74745,0.0176 29.9713,34.22995 -2.1792,-0.45062 -29.43593,-33.75556 -4.6638,0.0698 26.83092,32.18357 -2.52904,-0.52297 -25.81496,-31.50918 h -4.22093 l 21.20542,29.42559 3.01842,0.88212 -5.07979,-1.05007 -20.64474,-29.28245 h -4.485 v 25.3938 l 23.08645,5.30148 -0.002,0.0414 34.69401,7.65069 0.23513,-0.0496 0.25993,6.32313 -58.66929,-14.91382 -0.0992,-0.0987 -1.10187,2.12403 59.92619,14.25068 2.84042,0.56398 -0.94023,-13.23057 -2.47741,-1.37183 0.14056,3.4215 z m -20.63698,6.38411 3.54448,5.17694 -0.23306,13.66532 -3.63802,-0.88625 z m 48.62494,28.64166 6.14794,1.03818 0.009,0.23461 z"
       sodipodi:nodetypes="ccccccccccccccccccccccccccccccccccccccc" /><path
       id="path24"
       style="display:inline;opacity:1;fill:#ffffffff;stroke:#ffffffff;stroke-width:0.264583px;stroke-linecap:butt;stroke-linejoin:miter;stroke-opacity:1"
       d="m 201.48228,151.88117 -1.46917,0.0232 0.0703,5.50354 3.96617,21.7935 -1.13016,-1.16116 -3.62924,-21.00544 -2.98483,0.14004 1.45211,15.56339 -1.02423,-1.05213 -1.40715,-14.53451 -3.00808,-0.0233 1.12448,11.17762 -1.1064,-1.13637 -1.02112,-9.87795 -3.31143,0.0465 c 0,0 0.86388,4.85913 1.03973,6.44922 l -1.28106,-1.3162 -0.59789,-5.15627 -6.71639,0.0465 33.11426,34.18655 2.09858,-0.41961 -8.82324,-9.06302 -5.02863,-24.70392 z"
       inkscape:label="frontale_interno_dx" /><path
       id="path28"
       style="display:inline;opacity:1;fill:#ffffffff;stroke:#ffffffff;stroke-width:0;stroke-linecap:butt;stroke-linejoin:miter;stroke-dasharray:none;stroke-opacity:1"
       inkscape:label="fianco_frontale"
       d="m 125.64659,149.47925 0.2922,11.77655 -3.11805,21.09652 32.81524,7.7968 0.18655,-32.13448 -24.81244,-0.46663 -0.74621,-4.10415 z m 21.84157,10.41332 c 4.12244,-1.6e-4 7.43269,5.55582 7.43262,12.21734 -7e-5,6.66137 -2.44315,11.83918 -6.56549,11.83907 -0.36324,-0.003 -2.42061,-0.0302 -2.77968,-0.11886 4.20754,-0.51413 7.36491,-5.41545 7.37319,-11.8122 -0.002,-6.01546 -2.1612,-10.4773 -4.94078,-12.0375 0.15315,-0.0163 -0.67323,-0.0872 -0.51986,-0.0879 z m -7.26106,3.61786 c 0,0 -7.58514,4.74882 -1.25315,12.46591 l -10.75129,-0.85731 c 0,0 -4.68307,-5.47479 0.52762,-10.61951 z m 6.04563,4.88136 c 1.10134,-3.5e-4 1.99425,1.58162 1.99419,3.53312 -1.1e-4,1.9513 -0.89296,3.53295 -1.99419,3.5326 -1.10103,-1.5e-4 -1.99357,-1.58165 -1.99368,-3.5326 -6e-5,-1.95115 0.89254,-3.53297 1.99368,-3.53312 z"
       sodipodi:nodetypes="cccccccccscccccccccccccccc" /><path
       id="path31"
       style="display:inline;opacity:1;fill:#ffffffff;stroke:#ffffffff;stroke-width:0.264583px;stroke-linecap:butt;stroke-linejoin:miter;stroke-opacity:1"
       inkscape:label="laterale"
       d="m 141.01827,125.84813 -73.477173,25.7235 -0.26355,17.54518 55.477233,13.10359 3.47266,-20.54086 -1.23662,-23.03529 6.23269,-1.86345 z m -11.73365,6.06837 v 2.30838 l -56.218279,19.19366 -0.06718,6.97529 -1.995227,0.21445 0.12609,-8.12095 z m -10.71718,10.30428 h 5.2e-4 c 4.71836,0.18777 8.22118,9.7013 6.75204,20.92378 -1.67902,12.82577 -7.6507,13.82087 -7.6507,13.82087 l -0.002,-0.0434 c 1.89912,-1.3919 4.66941,-4.76776 5.72988,-12.86847 1.4691,-11.22254 -2.19698,-21.13237 -6.91534,-21.32014 0.7127,-0.37603 1.4116,-0.53946 2.08566,-0.51263 z m -4.87154,0.46043 c 4.52239,-3.5e-4 8.18862,7.4286 8.18865,16.59279 -4e-5,9.16419 -3.66626,16.59313 -8.18865,16.59278 -4.52217,-2.3e-4 -8.18809,-7.429 -8.18813,-16.59278 3e-5,-9.16378 3.66596,-16.59256 8.18813,-16.59279 z m -14.549497,5.05758 c 3.581057,0.13838 6.239777,7.14891 5.124747,15.41921 -1.27426,9.45178 -5.806359,10.18542 -5.806359,10.18542 l -0.0016,-0.032 c 1.441359,-1.02575 3.543719,-3.51341 4.348569,-9.48315 1.115,-8.27031 -1.66719,-15.57333 -5.248256,-15.7117 0.540906,-0.27711 1.071267,-0.39745 1.582849,-0.37775 z m -3.697966,0.33899 c 3.43248,-5.7e-4 6.215193,5.47439 6.215123,12.2282 -7e-5,6.75358 -2.782748,12.22824 -6.215123,12.22767 -3.43197,-5.5e-4 -6.214016,-5.47488 -6.21409,-12.22767 -7.5e-5,-6.75301 2.782015,-12.22765 6.21409,-12.2282 z m -9.848494,4.68654 c 0.02787,-0.001 0.05558,-0.001 0.0832,5.2e-4 h 5.17e-4 c 1.546952,0.0936 2.694966,4.83743 2.213301,10.43347 -0.550473,6.39548 -2.508374,6.89157 -2.508374,6.89157 l -5.16e-4,-0.0217 c 0.62264,-0.69406 1.530758,-2.37728 1.878438,-6.41666 0.481662,-5.59604 -0.720093,-10.53779 -2.267045,-10.63139 0.204454,-0.1641 0.405378,-0.24657 0.60048,-0.2558 z m -1.514119,0.22996 a 2.6845915,8.2739267 0 0 1 2.68459,8.27391 2.6845915,8.2739267 0 0 1 -2.68459,8.27392 2.6845915,8.2739267 0 0 1 -2.684591,-8.27392 2.6845915,8.2739267 0 0 1 2.684591,-8.27391 z m -6.192387,1.72082 c 0.02377,-0.001 0.04723,-8.9e-4 0.0708,5.2e-4 1.319485,0.0798 2.299098,4.12586 1.888257,8.8992 -0.469529,5.45522 -2.139404,5.87871 -2.139404,5.87871 l -5.17e-4,-0.0186 c 0.531088,-0.59202 1.305933,-2.02756 1.602486,-5.47305 0.410839,-4.77335 -0.614247,-8.98838 -1.933732,-9.06818 0.174392,-0.14004 0.3457,-0.21071 0.512114,-0.2186 z m -1.291394,0.19586 a 2.2898445,7.0575218 0 0 1 2.289782,7.05796 2.2898445,7.0575218 0 0 1 -2.289782,7.05746 2.2898445,7.0575218 0 0 1 -2.289783,-7.05746 2.2898445,7.0575218 0 0 1 2.289783,-7.05796 z" /><path
       id="path32"
       style="display:inline;opacity:1;fill:#ffffffff;stroke:none;stroke-width:0;stroke-linejoin:round;stroke-dasharray:none;stroke-opacity:1"
       inkscape:label="biella"
       d="m 113.64888,153.26713 a 2.1350687,3.1905234 0 0 0 -1.61282,1.10639 l 5.1e-4,-0.007 -17.52761,5.6317 c -7.3e-5,-0.007 -0.001,-0.0149 -0.001,-0.0222 0.0025,-1.59355 0.636474,-2.91057 1.608171,-3.54138 -0.06145,-0.0123 -0.18174,-0.0728 -0.428398,-0.0718 -0.191842,7.5e-4 -0.460308,0.0388 -0.836641,0.16536 -1.350634,1.0514 -1.644676,2.59823 -1.722376,4.15272 -0.08415,0.85225 0.432166,2.68647 0.698149,3.2706 a 2.013155,2.3319724 0 0 0 1.838131,1.38545 2.013155,2.3319724 0 0 0 2.013314,-2.33164 v -1.75183 l 12.93047,-3.19877 c -0.0174,0.68462 0.19228,2.76267 0.27595,3.61011 0.0777,1.55449 0.70163,3.1342 2.29961,3.93826 0.86016,0.2892 1.28757,0.0658 1.39681,0.0439 -0.9717,-0.63081 -2.11673,-2.72244 -2.11925,-4.31602 2.7e-4,-0.77321 0.11139,-1.43425 0.32401,-1.95957 a 2.1350687,3.1905234 0 0 0 0.863,0.27699 2.1350687,3.1905234 0 0 0 2.13527,-3.19051 2.1350687,3.1905234 0 0 0 -2.13527,-3.1905 z m -1.80764,3.13831 -0.0465,0.62942 -16.393835,4.45399 0.07028,-0.53588 z" /><path
       id="path32-9"
       style="display:inline;opacity:1;fill:#ffffffff;stroke:none;stroke-width:0;stroke-linejoin:round;stroke-dasharray:none;stroke-opacity:1"
       inkscape:label="biella"
       d="m 83.950766,160.05929 a 0.8169995,1.0447909 1.0692627 0 0 -0.62381,0.35073 l 2.32e-4,-0.002 -6.740314,1.71872 c 1.1e-5,-0.002 -2.89e-4,-0.005 -2.52e-4,-0.007 0.0105,-0.52174 0.261298,-0.94841 0.636912,-1.14801 -0.02345,-0.004 -0.06908,-0.0251 -0.163463,-0.0265 -0.0734,-0.001 -0.176343,0.009 -0.321101,0.0481 -0.523163,0.3346 -0.645113,0.83895 -0.684339,1.34735 -0.03738,0.27843 0.148924,0.88266 0.247119,1.07581 a 0.77034834,0.76364387 1.0692627 0 0 0.694786,0.46673 0.77034834,0.76364387 1.0692627 0 0 0.784522,-0.74902 l 0.01071,-0.57357 4.966624,-0.95497 c -0.01088,0.22402 0.05669,0.90589 0.08351,1.18395 0.02023,0.50952 0.249285,1.03118 0.855743,1.30585 0.327322,0.10082 0.492211,0.0307 0.534138,0.0244 -0.367908,-0.21347 -0.793204,-0.90647 -0.784431,-1.42825 0.0048,-0.25315 0.05138,-0.46879 0.135938,-0.63926 a 0.8169995,1.0447909 1.0692627 0 0 0.328483,0.0968 0.8169995,1.0447909 1.0692627 0 0 0.836432,-1.02935 0.8169995,1.0447909 1.0692627 0 0 -0.797438,-1.05985 z m -0.710764,1.0146 -0.02163,0.20576 -6.299344,1.34121 0.03017,-0.17495 z" /><g
       id="g41"
       inkscape:label="inceneritrice"><path
         id="path40"
         style="opacity:1;fill:#ffffff;stroke:#ffffffff;stroke-width:0;stroke-linecap:butt;stroke-linejoin:miter;stroke-dasharray:none;stroke-opacity:1"
         d="m 152.42946,89.834827 -33.63878,18.666563 -29.978013,14.90606 c -5.012809,5.14473 -0.428915,22.22811 -0.428915,22.22811 l 0.622701,-0.25839 c 1.135329,-0.12013 4.152488,-0.50112 2.966744,-1.07487 -0.50582,-0.24475 -1.09759,-1.35895 -1.653645,-2.70422 l 52.536848,-18.1436 -1.16582,-3.03134 -52.31619,18.56217 c -0.478488,-1.43352 -0.873466,-2.74367 -0.972551,-3.09593 -1.624638,-8.26893 1.169438,-11.03085 1.169438,-11.03085 l 55.164073,-28.295949 7.49618,-3.165698 z"
         inkscape:label="inceneritrice" /><path
         style="fill:#ffffffff;stroke:#ffffffff;stroke-width:0;stroke-linecap:butt;stroke-linejoin:miter;stroke-dasharray:none;stroke-opacity:1"
         d="m 92.486024,132.87578 0.233196,1.56243 37.70799,-13.61872 -0.25651,-1.5391 z"
         id="path41"
         inkscape:label="ombra_incenetrice" /></g><path
       id="path42"
       style="opacity:0.8;fill:#ffffffff;stroke:#ffffffff;stroke-width:0.264583px;stroke-linecap:butt;stroke-linejoin:miter;stroke-opacity:1"
       d="m 116.8771,97.873096 c -2.07173,0.03498 -3.63647,0.535884 -3.63647,0.535884 -5.36352,1.305902 -7.04246,6.52983 -7.04246,6.52983 -0.0779,3.43623 -0.65319,6.8702 -0.65319,10.30739 l 19.759,-9.68003 -0.34623,-3.69384 c -0.39639,-0.8515 -1.23701,-1.56415 -1.42524,-1.71772 l 0.0238,-0.0196 c -2.02881,-1.865566 -4.60743,-2.296854 -6.67918,-2.261874 z m -3.25458,2.916614 c 1.33749,-0.0175 2.90937,0.48849 4.71083,1.8986 l 0.16381,6.1035 -10.6872,5.23896 0.11679,-0.72502 0.0935,-8.41913 c 0,0 1.90449,-4.04863 5.60224,-4.09691 z"
       inkscape:label="ciminiera_2" /><path
       id="path43"
       style="opacity:1;fill:#ffffffff;stroke:#ffffffff;stroke-width:0.264583px;stroke-linecap:butt;stroke-linejoin:miter;stroke-opacity:1"
       inkscape:label="ciminiera"
       d="m 137.93112,73.151607 -4.91133,2.29185 -2.29134,2.853056 -2.33887,6.501412 2.99361,5.004862 0.28061,12.534633 16.51062,-8.980328 -1.0294,-7.997961 1.54358,-4.677234 -4.72374,-6.922058 z m 0.55087,1.805575 c 0.99129,0.0035 2.11171,0.173345 3.35483,0.603064 l 1.77715,3.67161 c -6.22069,-3.344206 -11.90366,1.403532 -11.90366,1.403532 l 1.33325,-3.578076 c 0,0 1.8981,-2.11262 5.43843,-2.10013 z m 0.0935,4.596102 c 1.54483,0.0016 3.30249,0.404216 5.27203,1.43247 l -1.09916,4.163054 c 0,0 -6.43096,-3.414505 -10.4066,2.595707 l -2.08152,-3.08715 c 0,0 2.79802,-5.10988 8.31525,-5.104081 z m 0.40359,6.872448 c 1.13731,0.0095 2.47272,0.241849 4.02818,0.820622 l 0.29766,8.235156 -9.90534,4.56406 -0.0165,-10.847914 c 0,0 1.53424,-2.805988 5.59604,-2.771924 z" /><path
       id="path44"
       style="opacity:1;fill:#ffffffff;stroke:#ffffffff;stroke-width:0;stroke-linecap:butt;stroke-linejoin:miter;stroke-dasharray:none;stroke-opacity:1"
       inkscape:label="vagone"
       d="m 82.225472,115.90145 -1.426786,1.07591 -15.248165,10.3203 0.330729,25.96947 v 15.65228 l 1.262455,0.30127 0.397392,-17.64905 -0.397392,-23.91017 13.702006,-8.58759 0.631486,28.07115 2.057756,0.2341 -0.748275,-29.70051 13.657564,1.96473 3.461288,-0.84181 z" /><path
       style="display:inline;fill:#ffffff;stroke:#ffffffff;stroke-width:0;stroke-linecap:butt;stroke-linejoin:miter;stroke-dasharray:none;stroke-opacity:1"
       d="m 76.299218,136.85573 1.918229,-0.39688 -0.363802,-11.60859 -6.713802,3.63802 4.927864,-0.79375 z"
       id="path45"
       inkscape:label="finestra" /><path
       id="path15"
       style="opacity:1;fill:#ffffff;stroke:#ffffffff;stroke-width:0.264583px;stroke-linecap:butt;stroke-linejoin:miter;stroke-opacity:1"
       inkscape:label="fumo"
       d="m 120.93319,66.173739 c -3.8085,0.08322 -8.24353,1.833574 -11.9755,7.794356 0,0 -9.715033,-4.739096 -9.833508,5.923669 0,0 -10.307027,-2.764265 -10.464994,6.911206 0,0 -9.004129,0.473861 -8.530229,10.228317 L 43.16429,130.20446 89.330465,101.88887 c 0,0 7.26641,2.64579 9.951847,-4.660179 0,0 4.185968,3.514679 8.372098,-3.080433 0,0 5.21308,4.265029 10.18904,-3.830773 0,0 8.56989,-0.11811 6.43734,-9.912057 0,0 1.18472,-3.119818 5.72626,-0.473873 0,0 0.39481,-3.198848 7.89823,-7.029545 0,0 -1.57987,-4.107324 -8.21449,-4.186308 0,0 -3.86096,-2.648956 -8.7576,-2.541963 z m 4.41316,9.567891 c 2.17343,0.0016 3.91036,0.951363 3.91036,0.951363 -6.39766,-0.552884 -7.97729,2.409155 -7.97729,2.409155 4.69951,8.411737 -2.56729,8.174695 -2.56729,8.174695 -5.13391,8.332754 -11.25512,2.171961 -11.25512,2.171961 -2.25103,8.885637 -7.898229,3.63337 -7.898229,3.63337 C 96.241476,102.9551 89.2514,98.611035 89.2514,98.611035 L 65.674544,112.94659 88.303654,97.070561 c 8.411737,3.514769 10.228316,-5.528862 10.228316,-5.528862 6.35817,2.882896 8.13542,-3.277836 8.13542,-3.277836 8.13529,4.975957 11.13627,-1.855701 11.13627,-1.855701 6.55564,-1.658652 2.29082,-8.056355 2.29082,-8.056355 1.60682,-2.038761 3.56143,-2.611392 5.25187,-2.610177 z" /><path
       style="fill:#ffffffff;stroke:none;stroke-width:0.264583px;stroke-linecap:butt;stroke-linejoin:miter;stroke-opacity:1"
       d="M 65.55052,127.29766 40.411151,144.3141 65.702764,139.25212 Z"
       id="path23"
       inkscape:label="scia_1" /><path
       style="display:inline;fill:#ffffffff;stroke:none;stroke-width:0.264583px;stroke-linecap:butt;stroke-linejoin:miter;stroke-opacity:1"
       d="m 65.702764,139.25212 -25.291613,13.38534 25.470098,0.62967 z"
       id="path38"
       inkscape:label="scia_2" /><path
       style="display:inline;fill:#ffffffff;stroke:none;stroke-width:0.264583px;stroke-linecap:butt;stroke-linejoin:miter;stroke-opacity:1"
       d="m 65.881249,153.26713 -25.470098,9.66947 25.470098,5.98281 v -15.65228"
       id="path37"
       inkscape:label="scia_3" /><path
       id="path46"
       style="opacity:1;fill:#ffffffff;fill-rule:evenodd;stroke:none;stroke-width:0.264999;stroke-linejoin:round;stroke-dasharray:none"
       d="M 131.38578 33.586064 A 108.90035 108.90035 0 0 0 22.485449 142.48639 A 108.90035 108.90035 0 0 0 131.38578 251.38672 A 108.90035 108.90035 0 0 0 137.18542 250.97176 A 108.90035 108.90035 0 0 1 34.084741 142.48639 A 108.90035 108.90035 0 0 1 138.90522 33.878035 A 108.90035 108.90035 0 0 0 131.38578 33.586064 z "
       inkscape:label="bordo" /></g><metadata
     id="metadata14"><rdf:RDF><cc:Work
         rdf:about=""><dc:title>CIUF Logo</dc:title><dc:creator><cc:Agent><dc:title>Giovanni Patruno</dc:title></cc:Agent></dc:creator><dc:description>CIUF Logo representing steam training running</dc:description></cc:Work></rdf:RDF></metadata></svg>
