<?xml version="1.0" encoding="UTF-8"?>
<svg id="Layer_1" xmlns="http://www.w3.org/2000/svg" xmlns:svg="http://www.w3.org/2000/svg" xmlns:sodipodi="http://sodipodi.sourceforge.net/DTD/sodipodi-0.dtd" xmlns:rdf="http://www.w3.org/1999/02/22-rdf-syntax-ns#" xmlns:inkscape="http://www.inkscape.org/namespaces/inkscape" xmlns:dc="http://purl.org/dc/elements/1.1/" xmlns:cc="http://creativecommons.org/ns#" version="1.1" viewBox="0 0 1000 1000">
  <!-- Generator: Adobe Illustrator 30.2.1, SVG Export Plug-In . SVG Version: 2.1.1 Build 1)  -->
  <defs>
    <style>
      .st0, .st2 {
        stroke: var(--md-footer-bg-color, #000);
        fill: var(--md-footer-bg-color, #000);
      }

      .st0, .st1 {
        stroke-linecap: round;
        stroke-linejoin: round;
        stroke-width: 9px;
      }

      .st1, .st3 {
        stroke: currentColor;
        fill: currentColor;
      }

      .st2 {
        stroke-miterlimit: 10;
      }
    </style>
  </defs>
  <sodipodi:namedview id="namedview1" bordercolor="#666666" borderopacity="1.0" inkscape:current-layer="layer2" inkscape:cx="285.5" inkscape:cy="538" inkscape:deskcolor="#d1d1d1" inkscape:document-units="mm" inkscape:export-bgcolor="#ffffffff" inkscape:pagecheckerboard="false" inkscape:pageopacity="0.0" inkscape:showpageshadow="false" inkscape:window-height="992" inkscape:window-maximized="1" inkscape:window-width="1920" inkscape:window-x="-8" inkscape:window-y="-8" inkscape:zoom="1" pagecolor="#ffffff" shape-rendering="auto" showborder="false" showguides="true"/>
  <path class="st3" d="M980.89,796.41v73.38L22.58,647.14l116.3-42.12-119.77-1.51,119.15-55.75-117.11,12.82,207.36-145.1,79.42,12.52,35.51-18.48v-53.8c0-15.45,21.04-27.99,47.02-27.99s47,12.54,47,27.99v4.86l34.06-17.73-4.69-36.9c0-2.22,6.07-6.27,8.26-7.61v-27.31l-.04-14.66h0c-24.85-2.68-43.25-24.36-41.84-49.32l.77-13.58L19.11,530.5l201.4-225.16c-.59-2.68-.9-5.47-.9-8.33,0-21.51,17.45-38.96,38.96-38.96,0-21.51,17.44-38.96,38.95-38.96,5.6,0,10.92,1.19,15.74,3.32-.56-2.76-.72-5.67-.39-8.68,1.49-13.57,12.86-24.22,26.5-24.84,7.86-.36,15.04,2.52,20.34,7.45,11.51-24.32,36.28-41.14,64.97-41.14,15.98,0,30.74,5.23,42.68,14.05.74-.08,1.49-.12,2.23-.12,17.75,0,32.13,9.29,32.13,36.36v92.08s9.13,2.15,9.13,4.82l-4.1,22.14,55.15-28.71c16.93-9.73,35.82-15.18,55.76-15.18,72.57,0,131.4,72.06,131.4,160.96,0,33.55-8.39,64.7-22.73,90.49l254.54,264.33Z"/>
  <ellipse class="st2" cx="450.1" cy="635.87" rx="46.06" ry="79.85"/>
  <ellipse class="st2" cx="637.67" cy="426.29" rx="46.47" ry="56.93"/>
  <ellipse class="st2" cx="203.65" cy="631.12" rx="14.61" ry="42.04"/>
  <ellipse class="st2" cx="264.83" cy="632.36" rx="23.26" ry="51.42"/>
  <ellipse class="st2" cx="346.05" cy="633.65" rx="34.66" ry="63.73"/>
  <path class="st2" d="M227.22,499.22c0,.85-.39,38.57-1.04,57.1l-52.25,12.2v-87.68c0-.98.51-1.89,1.35-2.39l47.71-28.42c.46-.28.96-.4,1.42-.4,1.46-.01,2.78,1.15,2.78,2.78l.03,46.81Z"/>
  <path class="st0" d="M904.24,790l-87.97-17.54-85.99-17.15-106.63-110.68c.7.01,1.39.02,2.09.02,19.42,0,37.98-4.52,55.01-12.76,15.28-7.38,29.33-17.74,41.67-30.51l181.82,188.62Z"/>
  <line class="st2" x1="221.35" y1="319.26" x2="220.51" y2="320.12"/>
  <path class="st2" d="M475.1,271.03v.08l-.04.04s.03-.08.04-.12Z"/>
  <line class="st1" x1="832.8" y1="789.6" x2="667.24" y2="617.88"/>
  <polygon class="st0" points="684.88 746.41 619.71 733.46 620.53 679.61 684.88 746.41"/>
</svg>
