<svg xmlns="http://www.w3.org/2000/svg" viewBox="0 0 64 64" width="64" height="64">
  <defs>
    <linearGradient id="gradWhite" x1="0%" y1="0%" x2="100%" y2="100%">
      <stop offset="0%" style="stop-color:#FFFFFF;stop-opacity:1" />
      <stop offset="100%" style="stop-color:#F5F5F5;stop-opacity:1" />
    </linearGradient>
  </defs>
  
  <g transform="translate(0, 8)">
    <!-- T shape -->
    <rect x="28" y="4" width="8" height="36" rx="4" fill="url(#gradWhite)"/>
    <rect x="14" y="4" width="36" height="8" rx="4" fill="#FFFFFF"/>
    
    <!-- Background clock circle -->
    <circle cx="32" cy="32" r="16" fill="none" stroke="#FFFFFF" stroke-width="3" opacity="0.2"/>
    
    <!-- Progress arc (suggesting active timer) -->
    <circle cx="32" cy="32" r="16" fill="none" stroke="url(#gradWhite)" stroke-width="3.5" 
            stroke-dasharray="75 100" stroke-linecap="round" 
            transform="rotate(-90 32 32)"/>
    
    <!-- Hour markers at cardinal positions -->
    <line x1="32" y1="17" x2="32" y2="21" stroke="#FFFFFF" stroke-width="2.5" stroke-linecap="round"/>
    <line x1="47" y1="32" x2="43" y2="32" stroke="#FFFFFF" stroke-width="2.5" stroke-linecap="round"/>
    <line x1="32" y1="47" x2="32" y2="43" stroke="#FFFFFF" stroke-width="2.5" stroke-linecap="round"/>
    <line x1="17" y1="32" x2="21" y2="32" stroke="#FFFFFF" stroke-width="2.5" stroke-linecap="round"/>
    
    <!-- Clock hands -->
    <line x1="32" y1="32" x2="32" y2="24" stroke="#FFFFFF" stroke-width="3" stroke-linecap="round"/>
    <line x1="32" y1="32" x2="38" y2="32" stroke="#FFFFFF" stroke-width="3" stroke-linecap="round"/>
    
    <!-- Center dot -->
    <circle cx="32" cy="32" r="2.5" fill="#FFFFFF"/>
    
    <!-- Task sequence dots -->
    <circle cx="22" cy="46" r="2.5" fill="#FFFFFF" opacity="0.6"/>
    <circle cx="32" cy="46" r="2.5" fill="#FFFFFF" opacity="0.8"/>
    <circle cx="42" cy="46" r="2.5" fill="#FFFFFF"/>
  </g>
</svg>